<svg xmlns="http://www.w3.org/2000/svg" width="256" height="256" viewBox="0 0 100 100"><rect width="100" height="100" rx="50" fill="#1c30f8"></rect><path d="M17.78 54.55L14.27 54.55L14.27 63.59Q13.87 63.68 13.12 63.82Q12.38 63.95 11.53 63.95L11.53 63.95Q9.82 63.95 9.12 63.32Q8.42 62.69 8.42 61.21L8.42 61.21L8.42 38.62Q8.42 37.76 8.87 37.31Q9.32 36.86 10.13 36.59L10.13 36.59Q10.85 36.37 11.73 36.19Q12.61 36.01 13.55 35.89Q14.50 35.78 15.44 35.74Q16.39 35.69 17.24 35.69L17.24 35.69Q23.18 35.69 26.17 38.23Q29.17 40.78 29.17 45.10L29.17 45.10Q29.17 49.42 26.24 51.98Q23.32 54.55 17.78 54.55L17.78 54.55ZM14.23 49.87L17.42 49.87Q20.12 49.87 21.67 48.70Q23.23 47.53 23.23 45.10L23.23 45.10Q23.23 42.76 21.76 41.59Q20.30 40.42 17.51 40.42L17.51 40.42Q15.58 40.42 14.23 40.69L14.23 40.69L14.23 49.87ZM50.77 53.74L38.26 55.54Q38.88 57.83 40.59 58.87Q42.30 59.90 44.83 59.90L44.83 59.90Q46.72 59.90 48.31 59.34Q49.91 58.78 50.90 58.15L50.90 58.15Q51.53 58.51 51.94 59.14Q52.34 59.77 52.34 60.49L52.34 60.49Q52.34 61.39 51.73 62.08Q51.13 62.78 50.07 63.28Q49.01 63.77 47.57 64.04Q46.13 64.31 44.47 64.31L44.47 64.31Q41.81 64.31 39.63 63.59Q37.45 62.87 35.89 61.41Q34.34 59.95 33.46 57.79Q32.59 55.63 32.59 52.75L32.59 52.75Q32.59 49.96 33.44 47.89Q34.30 45.82 35.76 44.42Q37.22 43.03 39.16 42.35Q41.09 41.68 43.25 41.68L43.25 41.68Q45.45 41.68 47.30 42.37Q49.14 43.07 50.45 44.31Q51.75 45.55 52.50 47.28Q53.24 49.01 53.24 51.04L53.24 51.04Q53.24 52.30 52.59 52.93Q51.94 53.56 50.77 53.74L50.77 53.74ZM43.25 45.95L43.25 45.95Q41.05 45.95 39.56 47.41Q38.08 48.88 37.89 51.58L37.89 51.58L47.88 50.09Q47.70 48.43 46.58 47.19Q45.45 45.95 43.25 45.95ZM63.36 57.02L63.36 57.02Q63.36 58.46 64.24 59.09Q65.12 59.72 66.69 59.72L66.69 59.72Q67.46 59.72 68.25 59.54Q69.03 59.36 69.66 59.09L69.66 59.09Q70.02 59.45 70.27 59.97Q70.52 60.49 70.52 61.16L70.52 61.16Q70.52 62.51 69.30 63.39Q68.09 64.27 65.39 64.27L65.39 64.27Q61.83 64.27 59.79 62.67Q57.74 61.07 57.74 57.38L57.74 57.38L57.74 36.73Q58.10 36.64 58.80 36.50Q59.49 36.37 60.30 36.37L60.30 36.37Q61.88 36.37 62.62 36.95Q63.36 37.54 63.36 39.02L63.36 39.02L63.36 42.76L69.98 42.76Q70.20 43.12 70.38 43.70Q70.56 44.29 70.56 44.96L70.56 44.96Q70.56 46.13 70.02 46.67Q69.48 47.21 68.58 47.21L68.58 47.21L63.36 47.21L63.36 57.02ZM91.58 57.61L91.58 57.61Q91.58 60.76 89.24 62.53Q86.90 64.31 82.40 64.31L82.40 64.31Q80.56 64.31 79.05 64.04Q77.54 63.77 76.44 63.25Q75.33 62.74 74.73 61.99Q74.12 61.25 74.12 60.35L74.12 60.35Q74.12 59.50 74.50 58.87Q74.89 58.24 75.52 57.83L75.52 57.83Q76.78 58.64 78.42 59.27Q80.06 59.90 82.22 59.90L82.22 59.90Q84.06 59.90 85.01 59.29Q85.95 58.69 85.95 57.61L85.95 57.61Q85.95 55.76 83.25 55.18L83.25 55.18L80.73 54.59Q77.41 53.83 75.81 52.30Q74.21 50.77 74.21 48.20L74.21 48.20Q74.21 45.28 76.55 43.45Q78.89 41.63 83.12 41.63L83.12 41.63Q84.74 41.63 86.11 41.88Q87.48 42.13 88.50 42.60Q89.51 43.07 90.07 43.72Q90.64 44.38 90.64 45.23L90.64 45.23Q90.64 46.04 90.28 46.65Q89.91 47.26 89.42 47.62L89.42 47.62Q89.02 47.35 88.36 47.08Q87.71 46.81 86.92 46.58Q86.14 46.36 85.26 46.20Q84.38 46.04 83.53 46.04L83.53 46.04Q81.77 46.04 80.78 46.60Q79.79 47.17 79.79 48.20L79.79 48.20Q79.79 48.97 80.35 49.46Q80.92 49.96 82.31 50.27L82.31 50.27L84.52 50.81Q88.25 51.67 89.91 53.31Q91.58 54.95 91.58 57.61Z" fill="#50e3c2"></path></svg>